{
  "source": "C:\\Users\\Peter\\Desktop\\stuff\\MIUN\\quantitative_research\\video_compression\\videos\\BVI-HD\\BVI-HD_CDVL_videos\\ORIG\\Hamster_1920x1080_60fps.mp4",
  "output": "C:\\Users\\Peter\\Desktop\\stuff\\MIUN\\quantitative_research\\video_compression\\compressed_videos\\BVI-HD\\hevc\\8\\Hamster_1920x1080_60fps_hevc.mp4",
  "codec": "hevc",
  "ok": "Input #0, mov,mp4,m4a,3gp,3g2,mj2, from 'C:\\Users\\Peter\\Desktop\\stuff\\MIUN\\quantitative_research\\video_compression\\videos\\BVI-HD\\BVI-HD_CDVL_videos\\ORIG\\Hamster_1920x1080_60fps.mp4':\n  Metadata:\n    major_brand     : isom\n    minor_version   : 512\n    compatible_brands: isomiso2avc1mp41\n    encoder         : Lavf54.28.101\n  Duration: 00:00:05.00, start: 0.000000, bitrate: 208485 kb/s\n  Stream #0:0[0x1](und): Video: h264 (High 4:4:4 Predictive) (avc1 / 0x31637661), yuv420p(progressive), 1920x1080, 208481 kb/s, 60 fps, 60 tbr, 60 tbn (default)\n    Metadata:\n      handler_name    : VideoHandler\n      vendor_id       : [0][0][0][0]\n[out#0/mp4 @ 000002735b7dae00] Codec AVOption b:a (set bitrate (in bits/s)) has not been used for any stream. The most likely reason is either wrong type (e.g. a video option with no video streams) or that it is a private option of some decoder which was not actually used for any stream.\nStream mapping:\n  Stream #0:0 -> #0:0 (h264 (native) -> hevc (libx265))\nPress [q] to stop, [?] for help\n[libx265 @ 000002735bdb07c0] Unknown option: \"aq-mode.\nx265 [info]: HEVC encoder version 4.1+190-8f11c33ac\nx265 [info]: build info [Windows][GCC 15.1.0][64 bit] 10bit\nx265 [info]: using cpu capabilities: MMX2 SSE2Fast LZCNT SSSE3 SSE4.2 AVX FMA3 BMI2 AVX2\nx265 [info]: Main 10 profile, Level-4.1 (Main tier)\nx265 [info]: Thread pool created using 12 threads\nx265 [info]: Slices                              : 1\nx265 [info]: frame threads / pool features       : 3 / wpp(17 rows)\nx265 [info]: Coding QT: max CU size, min CU size : 64 / 8\nx265 [info]: Residual QT: max TU size, max depth : 32 / 1 inter / 1 intra\nx265 [info]: ME / range / subpel / merge         : star / 57 / 3 / 3\nx265 [info]: Keyframe min / max / scenecut / bias  : 25 / 250 / 40 / 5.00 \nx265 [info]: Lookahead / bframes / badapt        : 25 / 4 / 2\nx265 [info]: b-pyramid / weightp / weightb       : 1 / 1 / 0\nx265 [info]: References / ref-limit  cu / depth  : 4 / on / on\nx265 [info]: AQ: mode / str / qg-size / cu-tree  : 2 / 1.0 / 32 / 1\nx265 [info]: Rate Control / qCompress            : ABR-8000 kbps / 0.60\nx265 [info]: VBV/HRD buffer / max-rate / init    : 8000 / 8000 / 0.750\nx265 [info]: tools: rect limit-modes rd=4 psy-rd=2.00 rdoq=2 psy-rdoq=1.00\nx265 [info]: tools: rskip mode=1 signhide tmvp strong-intra-smoothing lslices=4\nx265 [info]: tools: deblock sao dhdr10-info\nOutput #0, mp4, to 'C:\\Users\\Peter\\Desktop\\stuff\\MIUN\\quantitative_research\\video_compression\\compressed_videos\\BVI-HD\\hevc\\8\\Hamster_1920x1080_60fps_hevc.mp4':\n  Metadata:\n    major_brand     : isom\n    minor_version   : 512\n    compatible_brands: isomiso2avc1mp41\n    encoder         : Lavf62.3.100\n  Stream #0:0(und): Video: hevc (hev1 / 0x31766568), yuv420p10le(tv, progressive), 1920x1080, q=2-31, 8000 kb/s, 60 fps, 15360 tbn (default)\n    Metadata:\n      encoder         : Lavc62.11.100 libx265\n      handler_name    : VideoHandler\n      vendor_id       : [0][0][0][0]\n    Side data:\n      cpb: bitrate max/min/avg: 8000000/0/8000000 buffer size: 8000000 vbv_delay: N/A\nframe=    0 fps=0.0 q=0.0 size=       0KiB time=N/A bitrate=N/A speed=N/A elapsed=0:00:00.51    \nframe=    0 fps=0.0 q=0.0 size=       0KiB time=N/A bitrate=N/A speed=N/A elapsed=0:00:01.05    \nframe=    0 fps=0.0 q=0.0 size=       0KiB time=N/A bitrate=N/A speed=N/A elapsed=0:00:01.59    \nframe=    0 fps=0.0 q=0.0 size=       0KiB time=N/A bitrate=N/A speed=N/A elapsed=0:00:02.15    \nframe=    0 fps=0.0 q=0.0 size=       0KiB time=N/A bitrate=N/A speed=N/A elapsed=0:00:02.69    \nframe=    0 fps=0.0 q=0.0 size=       0KiB time=N/A bitrate=N/A speed=N/A elapsed=0:00:03.23    \nframe=    0 fps=0.0 q=0.0 size=       0KiB time=N/A bitrate=N/A speed=N/A elapsed=0:00:03.74    \nframe=    0 fps=0.0 q=0.0 size=       0KiB time=N/A bitrate=N/A speed=N/A elapsed=0:00:04.29    \nframe=    0 fps=0.0 q=0.0 size=       0KiB time=N/A bitrate=N/A speed=N/A elapsed=0:00:04.83    \nframe=    0 fps=0.0 q=0.0 size=       0KiB time=N/A bitrate=N/A speed=N/A elapsed=0:00:05.36    \nframe=    0 fps=0.0 q=0.0 size=       0KiB time=N/A bitrate=N/A speed=N/A elapsed=0:00:05.91    \nframe=    0 fps=0.0 q=0.0 size=       0KiB time=N/A bitrate=N/A speed=N/A elapsed=0:00:06.45    \nframe=    0 fps=0.0 q=0.0 size=       0KiB time=N/A bitrate=N/A speed=N/A elapsed=0:00:07.00    \nframe=    0 fps=0.0 q=0.0 size=       0KiB time=N/A bitrate=N/A speed=N/A elapsed=0:00:07.52    \nframe=    0 fps=0.0 q=0.0 size=       0KiB time=N/A bitrate=N/A speed=N/A elapsed=0:00:08.06    \nframe=    1 fps=0.1 q=26.9 size=       0KiB time=-00:00:00.01 bitrate=N/A speed=N/A elapsed=0:00:08.58    \nframe=    1 fps=0.1 q=26.9 size=       0KiB time=-00:00:00.01 bitrate=N/A speed=N/A elapsed=0:00:09.12    \nframe=    1 fps=0.1 q=26.9 size=       0KiB time=-00:00:00.01 bitrate=N/A speed=N/A elapsed=0:00:09.75    \nframe=    2 fps=0.2 q=27.5 size=       0KiB time=00:00:00.00 bitrate=N/A speed=   0x elapsed=0:00:10.31    \nframe=    2 fps=0.2 q=27.5 size=       0KiB time=00:00:00.00 bitrate=N/A speed=   0x elapsed=0:00:10.89    \nframe=    2 fps=0.2 q=27.5 size=       0KiB time=00:00:00.00 bitrate=N/A speed=   0x elapsed=0:00:11.45    \nframe=    3 fps=0.3 q=30.4 size=       0KiB time=00:00:00.01 bitrate=  21.1kbits/s speed=0.00139x elapsed=0:00:11.99    \nframe=    3 fps=0.2 q=30.4 size=       0KiB time=00:00:00.01 bitrate=  21.1kbits/s speed=0.00133x elapsed=0:00:12.57    \nframe=    3 fps=0.2 q=30.4 size=       0KiB time=00:00:00.01 bitrate=  21.1kbits/s speed=0.00127x elapsed=0:00:13.16    \nframe=    3 fps=0.2 q=30.4 size=       0KiB time=00:00:00.01 bitrate=  21.1kbits/s speed=0.00121x elapsed=0:00:13.75    \nframe=    3 fps=0.2 q=30.4 size=       0KiB time=00:00:00.01 bitrate=  21.1kbits/s speed=0.00116x elapsed=0:00:14.38    \nframe=    3 fps=0.2 q=30.4 size=       0KiB time=00:00:00.01 bitrate=  21.1kbits/s speed=0.00112x elapsed=0:00:14.90    \nframe=    4 fps=0.3 q=30.7 size=       0KiB time=00:00:00.03 bitrate=  10.6kbits/s speed=0.00215x elapsed=0:00:15.47    \nframe=    4 fps=0.2 q=30.7 size=       0KiB time=00:00:00.03 bitrate=  10.6kbits/s speed=0.00208x elapsed=0:00:16.03    \nframe=    4 fps=0.2 q=30.7 size=       0KiB time=00:00:00.03 bitrate=  10.6kbits/s speed=0.00201x elapsed=0:00:16.60    \nframe=    4 fps=0.2 q=30.7 size=       0KiB time=00:00:00.03 bitrate=  10.6kbits/s speed=0.00194x elapsed=0:00:17.14    \nframe=    5 fps=0.3 q=29.4 size=       0KiB time=00:00:00.05 bitrate=   7.0kbits/s speed=0.00283x elapsed=0:00:17.68    \nframe=    5 fps=0.3 q=29.4 size=       0KiB time=00:00:00.05 bitrate=   7.0kbits/s speed=0.00274x elapsed=0:00:18.23    \nframe=    5 fps=0.3 q=29.4 size=       0KiB time=00:00:00.05 bitrate=   7.0kbits/s speed=0.00266x elapsed=0:00:18.82    \nframe=    5 fps=0.3 q=29.4 size=       0KiB time=00:00:00.05 bitrate=   7.0kbits/s speed=0.00258x elapsed=0:00:19.37    \nframe=    5 fps=0.3 q=29.4 size=       0KiB time=00:00:00.05 bitrate=   7.0kbits/s speed=0.00251x elapsed=0:00:19.90    \nframe=    6 fps=0.3 q=24.8 size=       0KiB time=00:00:00.06 bitrate=   5.3kbits/s speed=0.00326x elapsed=0:00:20.42    \nframe=    6 fps=0.3 q=24.8 size=       0KiB time=00:00:00.06 bitrate=   5.3kbits/s speed=0.00319x elapsed=0:00:20.93    \nframe=    6 fps=0.3 q=24.8 size=       0KiB time=00:00:00.06 bitrate=   5.3kbits/s speed=0.00311x elapsed=0:00:21.45    \nframe=    6 fps=0.3 q=24.8 size=       0KiB time=00:00:00.06 bitrate=   5.3kbits/s speed=0.00303x elapsed=0:00:21.99    \nframe=    6 fps=0.3 q=24.8 size=       0KiB time=00:00:00.06 bitrate=   5.3kbits/s speed=0.00295x elapsed=0:00:22.57    \nframe=    6 fps=0.3 q=24.8 size=       0KiB time=00:00:00.06 bitrate=   5.3kbits/s speed=0.00288x elapsed=0:00:23.13    \nframe=    7 fps=0.3 q=28.0 size=       0KiB time=00:00:00.08 bitrate=   4.2kbits/s speed=0.00352x elapsed=0:00:23.69    \nframe=    7 fps=0.3 q=28.0 size=       0KiB time=00:00:00.08 bitrate=   4.2kbits/s speed=0.00342x elapsed=0:00:24.38    \nframe=    7 fps=0.3 q=28.0 size=       0KiB time=00:00:00.08 bitrate=   4.2kbits/s speed=0.00334x elapsed=0:00:24.96    \nframe=    8 fps=0.3 q=27.7 size=       0KiB time=00:00:00.10 bitrate=   3.5kbits/s speed=0.00392x elapsed=0:00:25.53    \nframe=    8 fps=0.3 q=27.7 size=       0KiB time=00:00:00.10 bitrate=   3.5kbits/s speed=0.00383x elapsed=0:00:26.12    \nframe=    9 fps=0.3 q=28.1 size=       0KiB time=00:00:00.11 bitrate=   3.0kbits/s speed=0.00437x elapsed=0:00:26.71    \nframe=    9 fps=0.3 q=28.1 size=       0KiB time=00:00:00.11 bitrate=   3.0kbits/s speed=0.00426x elapsed=0:00:27.38    \nframe=    9 fps=0.3 q=28.1 size=       0KiB time=00:00:00.11 bitrate=   3.0kbits/s speed=0.00418x elapsed=0:00:27.94    \nframe=   10 fps=0.4 q=29.3 size=       0KiB time=00:00:00.13 bitrate=   2.6kbits/s speed=0.00467x elapsed=0:00:28.56    \nframe=   11 fps=0.4 q=23.2 size=       0KiB time=00:00:00.15 bitrate=   2.3kbits/s speed=0.00514x elapsed=0:00:29.17    \nframe=   13 fps=0.4 q=29.9 size=       0KiB time=00:00:00.16 bitrate=   2.1kbits/s speed=0.00559x elapsed=0:00:29.81    \nframe=   14 fps=0.5 q=29.0 size=       0KiB time=00:00:00.20 bitrate=   1.8kbits/s speed=0.00658x elapsed=0:00:30.39    \nframe=   14 fps=0.5 q=29.0 size=       0KiB time=00:00:00.20 bitrate=   1.8kbits/s speed=0.00646x elapsed=0:00:30.97    \nframe=   14 fps=0.4 q=29.0 size=       0KiB time=00:00:00.20 bitrate=   1.8kbits/s speed=0.00635x elapsed=0:00:31.51    \nframe=   14 fps=0.4 q=29.0 size=       0KiB time=00:00:00.20 bitrate=   1.8kbits/s speed=0.00624x elapsed=0:00:32.05    \nframe=   14 fps=0.4 q=29.0 size=       0KiB time=00:00:00.20 bitrate=   1.8kbits/s speed=0.00614x elapsed=0:00:32.58    \nframe=   14 fps=0.4 q=29.0 size=       0KiB time=00:00:00.20 bitrate=   1.8kbits/s speed=0.00604x elapsed=0:00:33.10    \nframe=   15 fps=0.4 q=23.4 size=       0KiB time=00:00:00.21 bitrate=   1.6kbits/s speed=0.00644x elapsed=0:00:33.64    \nframe=   16 fps=0.5 q=24.0 size=       0KiB time=00:00:00.23 bitrate=   1.5kbits/s speed=0.00681x elapsed=0:00:34.24    \nframe=   17 fps=0.5 q=28.8 size=       0KiB time=00:00:00.25 bitrate=   1.4kbits/s speed=0.00717x elapsed=0:00:34.85    \nframe=   17 fps=0.5 q=28.8 size=       0KiB time=00:00:00.25 bitrate=   1.4kbits/s speed=0.00706x elapsed=0:00:35.42    \nframe=   18 fps=0.5 q=28.7 size=       0KiB time=00:00:00.26 bitrate=   1.3kbits/s speed=0.00739x elapsed=0:00:36.09    \nframe=   18 fps=0.5 q=28.7 size=       0KiB time=00:00:00.26 bitrate=   1.3kbits/s speed=0.00728x elapsed=0:00:36.62    \nframe=   18 fps=0.5 q=28.7 size=       0KiB time=00:00:00.26 bitrate=   1.3kbits/s speed=0.00718x elapsed=0:00:37.15    \nframe=   18 fps=0.5 q=28.7 size=       0KiB time=00:00:00.26 bitrate=   1.3kbits/s speed=0.00708x elapsed=0:00:37.67    \nframe=   18 fps=0.5 q=28.7 size=       0KiB time=00:00:00.26 bitrate=   1.3kbits/s speed=0.00698x elapsed=0:00:38.19    \nframe=   18 fps=0.5 q=28.7 size=       0KiB time=00:00:00.26 bitrate=   1.3kbits/s speed=0.00688x elapsed=0:00:38.75    \nframe=   18 fps=0.5 q=28.7 size=       0KiB time=00:00:00.26 bitrate=   1.3kbits/s speed=0.00679x elapsed=0:00:39.29    \nframe=   18 fps=0.5 q=28.7 size=       0KiB time=00:00:00.26 bitrate=   1.3kbits/s speed=0.00669x elapsed=0:00:39.87    \nframe=   19 fps=0.5 q=29.0 size=       0KiB time=00:00:00.26 bitrate=   1.3kbits/s speed=0.0066x elapsed=0:00:40.43    \nframe=   20 fps=0.5 q=23.4 size=       0KiB time=00:00:00.28 bitrate=   1.2kbits/s speed=0.00691x elapsed=0:00:40.99    \nframe=   20 fps=0.5 q=23.4 size=       0KiB time=00:00:00.30 bitrate=   1.2kbits/s speed=0.00721x elapsed=0:00:41.58    \nframe=   21 fps=0.5 q=26.4 size=     256KiB time=00:00:00.31 bitrate=6623.7kbits/s speed=0.00751x elapsed=0:00:42.15    \nframe=   21 fps=0.5 q=26.4 size=     256KiB time=00:00:00.31 bitrate=6623.7kbits/s speed=0.0074x elapsed=0:00:42.78    \nframe=   21 fps=0.5 q=26.4 size=     256KiB time=00:00:00.31 bitrate=6623.7kbits/s speed=0.00731x elapsed=0:00:43.33    \nframe=   21 fps=0.5 q=26.4 size=     256KiB time=00:00:00.31 bitrate=6623.7kbits/s speed=0.00721x elapsed=0:00:43.90    \nframe=   21 fps=0.5 q=26.4 size=     256KiB time=00:00:00.31 bitrate=6623.7kbits/s speed=0.00712x elapsed=0:00:44.47    \nframe=   21 fps=0.5 q=26.4 size=     256KiB time=00:00:00.31 bitrate=6623.7kbits/s speed=0.00704x elapsed=0:00:45.00    \nframe=   21 fps=0.5 q=26.4 size=     256KiB time=00:00:00.31 bitrate=6623.7kbits/s speed=0.00695x elapsed=0:00:45.54    \nframe=   22 fps=0.5 q=28.8 size=     256KiB time=00:00:00.33 bitrate=6292.5kbits/s speed=0.00723x elapsed=0:00:46.08    \nframe=   22 fps=0.5 q=28.8 size=     256KiB time=00:00:00.33 bitrate=6292.5kbits/s speed=0.00715x elapsed=0:00:46.62    \nframe=   22 fps=0.5 q=28.8 size=     256KiB time=00:00:00.33 bitrate=6292.5kbits/s speed=0.00707x elapsed=0:00:47.13    \nframe=   22 fps=0.5 q=28.8 size=     256KiB time=00:00:00.33 bitrate=6292.5kbits/s speed=0.00698x elapsed=0:00:47.74    \nframe=   22 fps=0.5 q=28.8 size=     256KiB time=00:00:00.33 bitrate=6292.5kbits/s speed=0.00689x elapsed=0:00:48.36    \nframe=   23 fps=0.5 q=28.8 size=     256KiB time=00:00:00.35 bitrate=5992.9kbits/s speed=0.00714x elapsed=0:00:48.98    \nframe=   23 fps=0.5 q=28.8 size=     256KiB time=00:00:00.35 bitrate=5992.9kbits/s speed=0.00707x elapsed=0:00:49.52    \nframe=   24 fps=0.5 q=23.2 size=     256KiB time=00:00:00.36 bitrate=5720.5kbits/s speed=0.00732x elapsed=0:00:50.05    \nframe=   25 fps=0.5 q=26.0 size=     256KiB time=00:00:00.38 bitrate=5471.8kbits/s speed=0.00757x elapsed=0:00:50.62    \nframe=   25 fps=0.5 q=26.0 size=     256KiB time=00:00:00.38 bitrate=5471.8kbits/s speed=0.00748x elapsed=0:00:51.22    \nframe=   25 fps=0.5 q=26.0 size=     256KiB time=00:00:00.38 bitrate=5471.8kbits/s speed=0.00741x elapsed=0:00:51.75    \nframe=   25 fps=0.5 q=26.0 size=     256KiB time=00:00:00.38 bitrate=5471.8kbits/s speed=0.00733x elapsed=0:00:52.28    \nframe=   25 fps=0.5 q=26.0 size=     256KiB time=00:00:00.38 bitrate=5471.8kbits/s speed=0.00725x elapsed=0:00:52.86    \nframe=   26 fps=0.5 q=28.3 size=     256KiB time=00:00:00.40 bitrate=5243.8kbits/s speed=0.00749x elapsed=0:00:53.42    \nframe=   26 fps=0.5 q=28.3 size=     256KiB time=00:00:00.40 bitrate=5243.8kbits/s speed=0.00741x elapsed=0:00:53.95    \nframe=   26 fps=0.5 q=28.3 size=     256KiB time=00:00:00.40 bitrate=5243.8kbits/s speed=0.00733x elapsed=0:00:54.53    \nframe=   26 fps=0.5 q=28.3 size=     256KiB time=00:00:00.40 bitrate=5243.8kbits/s speed=0.00726x elapsed=0:00:55.10    \nframe=   26 fps=0.5 q=28.3 size=     256KiB time=00:00:00.40 bitrate=5243.8kbits/s speed=0.00719x elapsed=0:00:55.66    \nframe=   27 fps=0.5 q=28.1 size=     256KiB time=00:00:00.41 bitrate=5034.0kbits/s speed=0.00741x elapsed=0:00:56.21    \nframe=   27 fps=0.5 q=28.1 size=     256KiB time=00:00:00.41 bitrate=5034.0kbits/s speed=0.00734x elapsed=0:00:56.75    \nframe=   27 fps=0.5 q=28.1 size=     256KiB time=00:00:00.41 bitrate=5034.0kbits/s speed=0.00727x elapsed=0:00:57.33    \nframe=   27 fps=0.5 q=28.1 size=     256KiB time=00:00:00.41 bitrate=5034.0kbits/s speed=0.00719x elapsed=0:00:57.97    \nframe=   27 fps=0.5 q=28.1 size=     256KiB time=00:00:00.41 bitrate=5034.0kbits/s speed=0.00711x elapsed=0:00:58.59    \nframe=   27 fps=0.5 q=28.1 size=     256KiB time=00:00:00.41 bitrate=5034.0kbits/s speed=0.00705x elapsed=0:00:59.12    \nframe=   27 fps=0.5 q=28.1 size=     256KiB time=00:00:00.41 bitrate=5034.0kbits/s speed=0.00697x elapsed=0:00:59.74    \nframe=   28 fps=0.5 q=23.2 size=     256KiB time=00:00:00.43 bitrate=4840.4kbits/s speed=0.00718x elapsed=0:01:00.32    \nframe=   29 fps=0.5 q=26.1 size=     256KiB time=00:00:00.43 bitrate=4840.4kbits/s speed=0.00712x elapsed=0:01:00.88    \nframe=   29 fps=0.5 q=26.1 size=     256KiB time=00:00:00.45 bitrate=4661.1kbits/s speed=0.00732x elapsed=0:01:01.50    \nframe=   29 fps=0.5 q=26.1 size=     256KiB time=00:00:00.45 bitrate=4661.1kbits/s speed=0.00725x elapsed=0:01:02.08    \nframe=   29 fps=0.5 q=26.1 size=     256KiB time=00:00:00.45 bitrate=4661.1kbits/s speed=0.00717x elapsed=0:01:02.74    \nframe=   30 fps=0.5 q=28.1 size=     256KiB time=00:00:00.46 bitrate=4494.6kbits/s speed=0.00737x elapsed=0:01:03.32    \nframe=   30 fps=0.5 q=28.1 size=     256KiB time=00:00:00.46 bitrate=4494.6kbits/s speed=0.0073x elapsed=0:01:03.89    \nframe=   30 fps=0.5 q=28.1 size=     256KiB time=00:00:00.46 bitrate=4494.6kbits/s speed=0.00724x elapsed=0:01:04.47    \nframe=   30 fps=0.5 q=28.1 size=     256KiB time=00:00:00.46 bitrate=4494.6kbits/s speed=0.00718x elapsed=0:01:05.02    \nframe=   31 fps=0.5 q=28.1 size=     256KiB time=00:00:00.48 bitrate=4339.7kbits/s speed=0.00737x elapsed=0:01:05.55    \nframe=   31 fps=0.5 q=28.1 size=     256KiB time=00:00:00.48 bitrate=4339.7kbits/s speed=0.00732x elapsed=0:01:06.07    \nframe=   31 fps=0.5 q=28.1 size=     256KiB time=00:00:00.48 bitrate=4339.7kbits/s speed=0.00726x elapsed=0:01:06.59    \nframe=   31 fps=0.5 q=28.1 size=     256KiB time=00:00:00.48 bitrate=4339.7kbits/s speed=0.0072x elapsed=0:01:07.10    \nframe=   31 fps=0.5 q=28.1 size=     256KiB time=00:00:00.48 bitrate=4339.7kbits/s speed=0.00715x elapsed=0:01:07.62    \nframe=   32 fps=0.5 q=23.4 size=     256KiB time=00:00:00.50 bitrate=4195.0kbits/s speed=0.00734x elapsed=0:01:08.16    \nframe=   33 fps=0.5 q=26.1 size=     256KiB time=00:00:00.51 bitrate=4059.7kbits/s speed=0.00752x elapsed=0:01:08.68    \nframe=   33 fps=0.5 q=26.1 size=     256KiB time=00:00:00.51 bitrate=4059.7kbits/s speed=0.00747x elapsed=0:01:09.21    \nframe=   34 fps=0.5 q=28.4 size=     256KiB time=00:00:00.53 bitrate=3932.8kbits/s speed=0.00765x elapsed=0:01:09.73    \nframe=   34 fps=0.5 q=28.4 size=     256KiB time=00:00:00.53 bitrate=3932.8kbits/s speed=0.00759x elapsed=0:01:10.30    \nframe=   34 fps=0.5 q=28.4 size=     256KiB time=00:00:00.53 bitrate=3932.8kbits/s speed=0.00752x elapsed=0:01:10.90    \nframe=   34 fps=0.5 q=28.4 size=     256KiB time=00:00:00.53 bitrate=3932.8kbits/s speed=0.00746x elapsed=0:01:11.50    \nframe=   35 fps=0.5 q=28.2 size=     256KiB time=00:00:00.55 bitrate=3813.6kbits/s speed=0.00763x elapsed=0:01:12.05    \nframe=   35 fps=0.5 q=28.2 size=     256KiB time=00:00:00.55 bitrate=3813.6kbits/s speed=0.00757x elapsed=0:01:12.62    \nframe=   35 fps=0.5 q=28.2 size=     256KiB time=00:00:00.55 bitrate=3813.6kbits/s speed=0.00752x elapsed=0:01:13.15    \nframe=   35 fps=0.5 q=28.2 size=     256KiB time=00:00:00.55 bitrate=3813.6kbits/s speed=0.00746x elapsed=0:01:13.76    \nframe=   35 fps=0.5 q=28.2 size=     256KiB time=00:00:00.55 bitrate=3813.6kbits/s speed=0.00739x elapsed=0:01:14.40    \nframe=   35 fps=0.5 q=28.2 size=     256KiB time=00:00:00.55 bitrate=3813.6kbits/s speed=0.00734x elapsed=0:01:14.92    \nframe=   36 fps=0.5 q=23.0 size=     256KiB time=00:00:00.56 bitrate=3701.5kbits/s speed=0.0075x elapsed=0:01:15.51    \nframe=   37 fps=0.5 q=26.2 size=     512KiB time=00:00:00.58 bitrate=7190.8kbits/s speed=0.00767x elapsed=0:01:16.08    \nframe=   37 fps=0.5 q=26.2 size=     512KiB time=00:00:00.58 bitrate=7190.8kbits/s speed=0.00761x elapsed=0:01:16.62    \nframe=   37 fps=0.5 q=26.2 size=     512KiB time=00:00:00.58 bitrate=7190.8kbits/s speed=0.00756x elapsed=0:01:17.15    \nframe=   37 fps=0.5 q=26.2 size=     512KiB time=00:00:00.58 bitrate=7190.8kbits/s speed=0.00751x elapsed=0:01:17.72    \nframe=   37 fps=0.5 q=26.2 size=     512KiB time=00:00:00.58 bitrate=7190.8kbits/s speed=0.00745x elapsed=0:01:18.34    \nframe=   37 fps=0.5 q=26.2 size=     512KiB time=00:00:00.58 bitrate=7190.8kbits/s speed=0.00739x elapsed=0:01:18.96    \nframe=   38 fps=0.5 q=28.6 size=     512KiB time=00:00:00.60 bitrate=6991.1kbits/s speed=0.00753x elapsed=0:01:19.65    \nframe=   38 fps=0.5 q=28.6 size=     512KiB time=00:00:00.60 bitrate=6991.1kbits/s speed=0.00748x elapsed=0:01:20.25    \nframe=   38 fps=0.5 q=28.6 size=     512KiB time=00:00:00.60 bitrate=6991.1kbits/s speed=0.00742x elapsed=0:01:20.91    \nframe=   38 fps=0.5 q=28.6 size=     512KiB time=00:00:00.60 bitrate=6991.1kbits/s speed=0.00736x elapsed=0:01:21.48    \nframe=   38 fps=0.5 q=28.6 size=     512KiB time=00:00:00.60 bitrate=6991.1kbits/s speed=0.00731x elapsed=0:01:22.04    \nframe=   38 fps=0.5 q=28.6 size=     512KiB time=00:00:00.60 bitrate=6991.1kbits/s speed=0.00727x elapsed=0:01:22.57    \nframe=   39 fps=0.5 q=28.1 size=     512KiB time=00:00:00.61 bitrate=6802.1kbits/s speed=0.00741x elapsed=0:01:23.21    \nframe=   39 fps=0.5 q=28.1 size=     512KiB time=00:00:00.61 bitrate=6802.1kbits/s speed=0.00736x elapsed=0:01:23.76    \nframe=   39 fps=0.5 q=28.1 size=     512KiB time=00:00:00.61 bitrate=6802.1kbits/s speed=0.00731x elapsed=0:01:24.36    \nframe=   40 fps=0.5 q=23.2 size=     512KiB time=00:00:00.63 bitrate=6623.1kbits/s speed=0.00746x elapsed=0:01:24.94    \nframe=   40 fps=0.5 q=23.2 size=     512KiB time=00:00:00.63 bitrate=6623.1kbits/s speed=0.0074x elapsed=0:01:25.58    \nframe=   41 fps=0.5 q=26.1 size=     512KiB time=00:00:00.63 bitrate=6623.1kbits/s speed=0.00734x elapsed=0:01:26.24    \nframe=   41 fps=0.5 q=26.1 size=     512KiB time=00:00:00.65 bitrate=6453.3kbits/s speed=0.00749x elapsed=0:01:26.81    \nframe=   41 fps=0.5 q=26.1 size=     512KiB time=00:00:00.65 bitrate=6453.3kbits/s speed=0.00743x elapsed=0:01:27.44    \nframe=   41 fps=0.5 q=26.1 size=     512KiB time=00:00:00.65 bitrate=6453.3kbits/s speed=0.00738x elapsed=0:01:28.01    \nframe=   41 fps=0.5 q=26.1 size=     512KiB time=00:00:00.65 bitrate=6453.3kbits/s speed=0.00734x elapsed=0:01:28.61    \nframe=   41 fps=0.5 q=26.1 size=     512KiB time=00:00:00.65 bitrate=6453.3kbits/s speed=0.00729x elapsed=0:01:29.15    \nframe=   41 fps=0.5 q=26.1 size=     512KiB time=00:00:00.65 bitrate=6453.3kbits/s speed=0.00725x elapsed=0:01:29.68    \nframe=   42 fps=0.5 q=28.0 size=     512KiB time=00:00:00.66 bitrate=6292.0kbits/s speed=0.00739x elapsed=0:01:30.23    \nframe=   42 fps=0.5 q=28.0 size=     512KiB time=00:00:00.66 bitrate=6292.0kbits/s speed=0.00733x elapsed=0:01:30.90    \nframe=   42 fps=0.5 q=28.0 size=     512KiB time=00:00:00.66 bitrate=6292.0kbits/s speed=0.00728x elapsed=0:01:31.53    \nframe=   43 fps=0.5 q=28.2 size=     512KiB time=00:00:00.68 bitrate=6138.5kbits/s speed=0.00742x elapsed=0:01:32.11    \nframe=   43 fps=0.5 q=28.2 size=     512KiB time=00:00:00.68 bitrate=6138.5kbits/s speed=0.00737x elapsed=0:01:32.71    \nframe=   43 fps=0.5 q=28.2 size=     512KiB time=00:00:00.68 bitrate=6138.5kbits/s speed=0.00732x elapsed=0:01:33.30    \nframe=   43 fps=0.5 q=28.2 size=     512KiB time=00:00:00.68 bitrate=6138.5kbits/s speed=0.00728x elapsed=0:01:33.84    \nframe=   43 fps=0.5 q=28.2 size=     512KiB time=00:00:00.68 bitrate=6138.5kbits/s speed=0.00724x elapsed=0:01:34.40    \nframe=   44 fps=0.5 q=23.2 size=     512KiB time=00:00:00.70 bitrate=5992.4kbits/s speed=0.00737x elapsed=0:01:35.02    \nframe=   44 fps=0.5 q=23.2 size=     512KiB time=00:00:00.70 bitrate=5992.4kbits/s speed=0.00732x elapsed=0:01:35.61    \nframe=   44 fps=0.5 q=23.2 size=     512KiB time=00:00:00.70 bitrate=5992.4kbits/s speed=0.00728x elapsed=0:01:36.15    \nframe=   45 fps=0.5 q=27.4 size=     512KiB time=00:00:00.70 bitrate=5992.4kbits/s speed=0.00724x elapsed=0:01:36.67    \nframe=   45 fps=0.5 q=27.4 size=     512KiB time=00:00:00.71 bitrate=5853.0kbits/s speed=0.00737x elapsed=0:01:37.27    \nframe=   45 fps=0.5 q=27.4 size=     512KiB time=00:00:00.71 bitrate=5853.0kbits/s speed=0.00732x elapsed=0:01:37.85    \nframe=   45 fps=0.5 q=27.4 size=     512KiB time=00:00:00.71 bitrate=5853.0kbits/s speed=0.00728x elapsed=0:01:38.47    \nframe=   46 fps=0.5 q=28.4 size=     512KiB time=00:00:00.73 bitrate=5720.0kbits/s speed=0.00741x elapsed=0:01:39.02    \nframe=   46 fps=0.5 q=28.4 size=     512KiB time=00:00:00.73 bitrate=5720.0kbits/s speed=0.00736x elapsed=0:01:39.61    \nframe=   46 fps=0.5 q=28.4 size=     512KiB time=00:00:00.73 bitrate=5720.0kbits/s speed=0.00731x elapsed=0:01:40.26    \nframe=   46 fps=0.5 q=28.4 size=     512KiB time=00:00:00.73 bitrate=5720.0kbits/s speed=0.00727x elapsed=0:01:40.80    \nframe=   46 fps=0.5 q=28.4 size=     512KiB time=00:00:00.73 bitrate=5720.0kbits/s speed=0.00723x elapsed=0:01:41.42    \nframe=   46 fps=0.5 q=28.4 size=     512KiB time=00:00:00.73 bitrate=5720.0kbits/s speed=0.00719x elapsed=0:01:42.01    \nframe=   46 fps=0.4 q=28.4 size=     512KiB time=00:00:00.73 bitrate=5720.0kbits/s speed=0.00715x elapsed=0:01:42.54    \nframe=   47 fps=0.5 q=28.1 size=     512KiB time=00:00:00.75 bitrate=5592.9kbits/s speed=0.00728x elapsed=0:01:43.08    \nframe=   47 fps=0.5 q=28.1 size=     512KiB time=00:00:00.75 bitrate=5592.9kbits/s speed=0.00724x elapsed=0:01:43.63    \nframe=   47 fps=0.5 q=28.1 size=     512KiB time=00:00:00.75 bitrate=5592.9kbits/s speed=0.0072x elapsed=0:01:44.20    \nframe=   47 fps=0.4 q=28.1 size=     512KiB time=00:00:00.75 bitrate=5592.9kbits/s speed=0.00716x elapsed=0:01:44.75    \nframe=   47 fps=0.4 q=28.1 size=     512KiB time=00:00:00.75 bitrate=5592.9kbits/s speed=0.00712x elapsed=0:01:45.32    \nframe=   48 fps=0.5 q=27.9 size=     512KiB time=00:00:00.76 bitrate=5471.3kbits/s speed=0.00724x elapsed=0:01:45.90    \nframe=   48 fps=0.5 q=27.9 size=     512KiB time=00:00:00.76 bitrate=5471.3kbits/s speed=0.0072x elapsed=0:01:46.50    \nframe=   48 fps=0.4 q=27.9 size=     512KiB time=00:00:00.76 bitrate=5471.3kbits/s speed=0.00716x elapsed=0:01:47.07    \nframe=   48 fps=0.4 q=27.9 size=     512KiB time=00:00:00.76 bitrate=5471.3kbits/s speed=0.00712x elapsed=0:01:47.65    \nframe=   48 fps=0.4 q=27.9 size=     512KiB time=00:00:00.76 bitrate=5471.3kbits/s speed=0.00708x elapsed=0:01:48.21    \nframe=   49 fps=0.5 q=23.4 size=     512KiB time=00:00:00.78 bitrate=5354.9kbits/s speed=0.0072x elapsed=0:01:48.83    \nframe=   49 fps=0.4 q=23.4 size=     512KiB time=00:00:00.78 bitrate=5354.9kbits/s speed=0.00716x elapsed=0:01:49.43    \nframe=   49 fps=0.4 q=23.4 size=     512KiB time=00:00:00.78 bitrate=5354.9kbits/s speed=0.00712x elapsed=0:01:50.03    \nReceived > 3 system signals, hard exiting\n",
  "seconds": 110.95809745788574
}